<?xml version="1.0" standalone="no"?>
<!DOCTYPE svg PUBLIC "-//W3C//DTD SVG 20010904//EN"
 "http://www.w3.org/TR/2001/REC-SVG-20010904/DTD/svg10.dtd">
<svg version="1.0" xmlns="http://www.w3.org/2000/svg"
 width="389.000000pt" height="383.000000pt" viewBox="0 0 389.000000 383.000000"
 preserveAspectRatio="xMidYMid meet">

<g transform="translate(0.000000,383.000000) scale(0.100000,-0.100000)"
fill="#000000" stroke="none">
<path d="M3323 3248 c-6 -7 -27 -54 -47 -105 -41 -103 -46 -155 -22 -222 13
-35 18 -107 23 -340 l6 -297 -69 -31 c-122 -54 -114 -56 -115 29 -1 40 -4 273
-8 518 l-6 445 -22 3 c-17 3 -31 -11 -64 -60 -24 -34 -48 -77 -54 -93 -7 -21
-8 -183 -5 -493 l5 -461 -88 -41 c-48 -22 -98 -42 -112 -46 l-25 -6 0 336 0
336 29 -6 c23 -5 32 -2 41 16 17 31 7 70 -62 254 -79 213 -98 256 -113 256
-17 0 -85 -164 -92 -222 -4 -30 0 -62 11 -95 14 -40 19 -120 27 -492 5 -245 6
-448 2 -452 -13 -12 -613 -277 -613 -270 0 3 9 31 21 61 46 121 36 240 -36
421 -19 47 -35 89 -35 92 0 3 10 7 23 9 32 4 34 42 3 88 -14 21 -56 71 -94
110 -61 63 -72 71 -89 61 -21 -11 -37 -58 -49 -148 -3 -29 -8 -53 -10 -53 -2
0 -48 25 -101 56 -78 45 -98 53 -108 42 -7 -7 -33 -52 -58 -99 -44 -81 -45
-87 -29 -101 26 -23 200 -118 215 -118 7 0 34 39 60 87 36 70 47 84 52 68 4
-11 40 -103 80 -205 98 -245 95 -230 47 -268 -151 -120 -602 -339 -774 -376
l-28 -6 0 92 c0 51 -5 453 -11 893 -12 891 -9 860 -73 792 -19 -21 -48 -65
-65 -100 l-29 -62 10 -813 c6 -446 8 -815 5 -818 -11 -12 -172 17 -222 40 -93
43 -145 101 -181 206 -28 80 -25 289 5 380 31 96 27 140 -13 140 -60 0 -146
-279 -146 -474 0 -93 18 -174 59 -261 80 -172 213 -260 411 -274 l95 -6 3
-105 c7 -245 94 -425 240 -497 51 -25 67 -28 162 -28 99 0 110 2 172 33 49 24
84 52 131 103 l64 70 12 -42 c18 -59 98 -140 169 -172 114 -50 365 -60 527
-22 149 35 351 139 456 233 27 24 49 42 49 39 0 -2 -7 -21 -15 -42 -26 -60
-10 -79 85 -103 l35 -9 -31 -16 c-17 -9 -64 -23 -105 -31 -76 -16 -96 -31 -76
-54 19 -23 138 -9 232 27 109 42 178 92 247 179 90 113 148 250 185 431 16 78
18 151 14 824 l-4 737 31 -6 c34 -7 52 14 52 60 0 39 -151 448 -175 474 -10
11 -14 11 -22 0z m-36 -1698 c-3 -398 -6 -474 -21 -530 -43 -166 -110 -289
-195 -359 -33 -27 -43 -31 -36 -16 28 68 12 105 -46 105 -15 0 -40 5 -56 11
l-28 11 28 24 c15 13 34 24 42 24 14 0 36 34 49 78 6 17 3 22 -11 22 -11 0
-25 -6 -32 -12 -16 -15 -16 -17 37 93 23 48 52 126 64 175 22 86 23 103 21
514 l-1 426 59 23 c32 12 71 36 86 52 l28 29 8 -102 c4 -57 6 -312 4 -568z
m-337 107 c0 -352 -2 -388 -20 -454 -41 -149 -120 -274 -246 -392 -42 -39 -78
-70 -80 -68 -2 2 10 35 26 74 38 90 76 250 90 378 6 55 10 248 9 429 l-1 329
98 43 c55 24 105 44 112 44 9 0 12 -83 12 -383z m-379 -44 c3 -571 -2 -655
-47 -811 -35 -122 -46 -138 -115 -173 -34 -17 -63 -28 -65 -26 -3 3 11 32 31
65 19 33 35 67 35 75 0 8 -30 32 -67 52 -38 20 -69 38 -71 40 -1 1 18 39 43
85 26 45 44 88 41 95 -2 7 -35 29 -73 50 -97 54 -92 45 -72 122 22 83 24 172
5 218 -16 38 -67 70 -98 61 -18 -4 -20 -1 -15 30 6 33 4 35 -48 59 -91 43 -90
49 11 97 208 97 490 226 497 227 4 1 8 -119 8 -266z m-669 -13 c-4 -47 -3 -52
32 -84 21 -18 55 -42 77 -51 l40 -18 -30 -31 c-16 -17 -58 -76 -93 -131 -165
-255 -315 -417 -458 -491 -49 -25 -65 -29 -145 -29 -81 0 -95 3 -138 28 -92
54 -140 165 -135 311 l3 86 120 41 c212 71 501 228 655 355 41 34 75 63 76 63
1 1 -1 -21 -4 -49z m212 -369 c34 -64 31 -101 -13 -181 -22 -41 -41 -82 -41
-90 0 -8 31 -32 71 -53 l70 -39 -26 -44 c-14 -24 -36 -64 -50 -88 l-26 -44 28
-19 c15 -11 56 -35 90 -53 34 -19 60 -37 58 -41 -5 -7 -115 -24 -211 -33 l-52
-5 -4 97 c-5 113 -25 161 -107 260 l-49 59 37 49 c20 27 58 83 84 124 85 133
114 154 141 101z"/>
</g>
</svg>
